# xmcd CD database file
#
# Track frame offsets:
#	150
#	8656
#	20703
#	37424
#	59321
#	79406
#	104399
#	135924
#	168701
#	196098
#
# Disc length: 2890 seconds
#
# Revision: 0
# Processed by: cddbd v1.5.1PL0 Copyright (c) Steve Scherf et al.
# Submitted via: CDex 1.51
#
DISCID=830b480a
DTITLE=Kitaro - World Of Kita[Vol04][Eternal Trip]
DYEAR=2000
DGENRE=New Age
TTITLE0=Cirque Ingenieux
TTITLE1=Sarah's World
TTITLE2=Cosmic Wave
TTITLE3=The Field
TTITLE4=Year 40080
TTITLE5=Time Traveler
TTITLE6=Space Te
TTITLE7=The Bottom Of The Sky
TTITLE8=Double Lira, Final
TTITLE9=Caravansary
EXTD=YEAR: 2000
EXTT0=
EXTT1=
EXTT2=
EXTT3=
EXTT4=
EXTT5=
EXTT6=
EXTT7=
EXTT8=
EXTT9=
PLAYORDER=
